<mxfile host="app.diagrams.net" agent="Mozilla/5.0 (Windows NT 10.0; Win64; x64) AppleWebKit/537.36 (KHTML, like Gecko) Chrome/129.0.0.0 Safari/537.36" version="24.7.14">
  <diagram name="Seite-1" id="EFWyOZwOtQAPrSlJlUhC">
    <mxGraphModel dx="789" dy="1103" grid="1" gridSize="10" guides="1" tooltips="1" connect="1" arrows="1" fold="1" page="1" pageScale="1" pageWidth="827" pageHeight="1169" math="0" shadow="0">
      <root>
        <mxCell id="0" />
        <mxCell id="1" parent="0" />
        <mxCell id="cy5onEMHaT8GomFFvrG8-16" value="" style="endArrow=classic;html=1;rounded=0;entryX=0.5;entryY=0;entryDx=0;entryDy=0;entryPerimeter=0;" edge="1" parent="1" source="cy5onEMHaT8GomFFvrG8-3" target="cy5onEMHaT8GomFFvrG8-23">
          <mxGeometry width="50" height="50" relative="1" as="geometry">
            <mxPoint x="490" y="370" as="sourcePoint" />
            <mxPoint x="489.5" y="445" as="targetPoint" />
          </mxGeometry>
        </mxCell>
        <mxCell id="cy5onEMHaT8GomFFvrG8-54" value="" style="edgeStyle=orthogonalEdgeStyle;rounded=0;orthogonalLoop=1;jettySize=auto;html=1;" edge="1" parent="1" source="cy5onEMHaT8GomFFvrG8-18" target="cy5onEMHaT8GomFFvrG8-52">
          <mxGeometry relative="1" as="geometry" />
        </mxCell>
        <mxCell id="cy5onEMHaT8GomFFvrG8-18" value="Postgre&lt;div&gt;+ PostGIS&lt;/div&gt;" style="shape=cylinder3;whiteSpace=wrap;html=1;boundedLbl=1;backgroundOutline=1;size=15;" vertex="1" parent="1">
          <mxGeometry x="190" y="455" width="120" height="85" as="geometry" />
        </mxCell>
        <mxCell id="cy5onEMHaT8GomFFvrG8-57" style="edgeStyle=orthogonalEdgeStyle;rounded=0;orthogonalLoop=1;jettySize=auto;html=1;exitX=0.5;exitY=1;exitDx=0;exitDy=0;exitPerimeter=0;" edge="1" parent="1" source="cy5onEMHaT8GomFFvrG8-23" target="cy5onEMHaT8GomFFvrG8-55">
          <mxGeometry relative="1" as="geometry">
            <Array as="points">
              <mxPoint x="490" y="660" />
              <mxPoint x="325" y="660" />
            </Array>
          </mxGeometry>
        </mxCell>
        <mxCell id="cy5onEMHaT8GomFFvrG8-23" value="MongoDB" style="shape=cylinder3;whiteSpace=wrap;html=1;boundedLbl=1;backgroundOutline=1;size=15;" vertex="1" parent="1">
          <mxGeometry x="430" y="455" width="120" height="85" as="geometry" />
        </mxCell>
        <mxCell id="cy5onEMHaT8GomFFvrG8-46" value="Data Source&lt;div&gt;(JSON, XML, CSV)&lt;/div&gt;" style="rounded=0;whiteSpace=wrap;html=1;" vertex="1" parent="1">
          <mxGeometry x="90" y="40" width="480" height="60" as="geometry" />
        </mxCell>
        <mxCell id="cy5onEMHaT8GomFFvrG8-56" value="" style="edgeStyle=orthogonalEdgeStyle;rounded=0;orthogonalLoop=1;jettySize=auto;html=1;" edge="1" parent="1" source="cy5onEMHaT8GomFFvrG8-52" target="cy5onEMHaT8GomFFvrG8-55">
          <mxGeometry relative="1" as="geometry" />
        </mxCell>
        <mxCell id="cy5onEMHaT8GomFFvrG8-52" value="FROST Server&lt;div&gt;OpenThingsAPI&lt;/div&gt;" style="whiteSpace=wrap;html=1;" vertex="1" parent="1">
          <mxGeometry x="130" y="570" width="240" height="60" as="geometry" />
        </mxCell>
        <mxCell id="cy5onEMHaT8GomFFvrG8-55" value="Grafana" style="whiteSpace=wrap;html=1;" vertex="1" parent="1">
          <mxGeometry x="130" y="690" width="390" height="60" as="geometry" />
        </mxCell>
        <mxCell id="cy5onEMHaT8GomFFvrG8-59" value="" style="endArrow=classic;startArrow=classic;html=1;rounded=0;exitX=1;exitY=0.5;exitDx=0;exitDy=0;exitPerimeter=0;entryX=0;entryY=0.5;entryDx=0;entryDy=0;entryPerimeter=0;" edge="1" parent="1" source="cy5onEMHaT8GomFFvrG8-18" target="cy5onEMHaT8GomFFvrG8-23">
          <mxGeometry width="50" height="50" relative="1" as="geometry">
            <mxPoint x="540" y="480" as="sourcePoint" />
            <mxPoint x="590" y="430" as="targetPoint" />
          </mxGeometry>
        </mxCell>
        <mxCell id="cy5onEMHaT8GomFFvrG8-60" value="location id" style="edgeLabel;html=1;align=center;verticalAlign=middle;resizable=0;points=[];" vertex="1" connectable="0" parent="cy5onEMHaT8GomFFvrG8-59">
          <mxGeometry x="-0.0444" y="-1" relative="1" as="geometry">
            <mxPoint x="3" y="-18" as="offset" />
          </mxGeometry>
        </mxCell>
        <mxCell id="cy5onEMHaT8GomFFvrG8-63" style="edgeStyle=orthogonalEdgeStyle;rounded=0;orthogonalLoop=1;jettySize=auto;html=1;" edge="1" parent="1" source="cy5onEMHaT8GomFFvrG8-46" target="cy5onEMHaT8GomFFvrG8-4">
          <mxGeometry relative="1" as="geometry">
            <mxPoint x="320" y="160" as="sourcePoint" />
          </mxGeometry>
        </mxCell>
        <mxCell id="cy5onEMHaT8GomFFvrG8-64" value="" style="swimlane;startSize=0;" vertex="1" parent="1">
          <mxGeometry x="90" y="140" width="480" height="280" as="geometry">
            <mxRectangle x="90" y="140" width="50" height="40" as="alternateBounds" />
          </mxGeometry>
        </mxCell>
        <mxCell id="cy5onEMHaT8GomFFvrG8-4" value="DuckDB" style="shape=cylinder3;whiteSpace=wrap;html=1;boundedLbl=1;backgroundOutline=1;size=15;" vertex="1" parent="cy5onEMHaT8GomFFvrG8-64">
          <mxGeometry x="180" y="30" width="120" height="70" as="geometry" />
        </mxCell>
        <mxCell id="cy5onEMHaT8GomFFvrG8-1" value="timeseries data&lt;div&gt;(measurements)&lt;/div&gt;" style="rounded=0;whiteSpace=wrap;html=1;" vertex="1" parent="cy5onEMHaT8GomFFvrG8-64">
          <mxGeometry x="40" y="160" width="120" height="60" as="geometry" />
        </mxCell>
        <mxCell id="cy5onEMHaT8GomFFvrG8-51" value="" style="endArrow=classic;html=1;rounded=0;exitX=0.5;exitY=1;exitDx=0;exitDy=0;exitPerimeter=0;entryX=0.5;entryY=0;entryDx=0;entryDy=0;edgeStyle=orthogonalEdgeStyle;" edge="1" parent="cy5onEMHaT8GomFFvrG8-64" source="cy5onEMHaT8GomFFvrG8-4" target="cy5onEMHaT8GomFFvrG8-1">
          <mxGeometry width="50" height="50" relative="1" as="geometry">
            <mxPoint x="450" y="540" as="sourcePoint" />
            <mxPoint x="500" y="490" as="targetPoint" />
            <Array as="points">
              <mxPoint x="230" y="140" />
              <mxPoint x="100" y="140" />
            </Array>
          </mxGeometry>
        </mxCell>
        <mxCell id="cy5onEMHaT8GomFFvrG8-2" value="spatial data&lt;div&gt;(locations)&lt;/div&gt;" style="rounded=0;whiteSpace=wrap;html=1;" vertex="1" parent="cy5onEMHaT8GomFFvrG8-64">
          <mxGeometry x="190" y="160" width="120" height="60" as="geometry" />
        </mxCell>
        <mxCell id="cy5onEMHaT8GomFFvrG8-49" value="" style="edgeStyle=orthogonalEdgeStyle;rounded=0;orthogonalLoop=1;jettySize=auto;html=1;exitX=0.5;exitY=1;exitDx=0;exitDy=0;exitPerimeter=0;" edge="1" parent="cy5onEMHaT8GomFFvrG8-64">
          <mxGeometry relative="1" as="geometry">
            <mxPoint x="245" y="100" as="sourcePoint" />
            <mxPoint x="235" y="160" as="targetPoint" />
            <Array as="points">
              <mxPoint x="235" y="120" />
              <mxPoint x="235" y="120" />
            </Array>
          </mxGeometry>
        </mxCell>
        <mxCell id="cy5onEMHaT8GomFFvrG8-3" value="master data&lt;div&gt;(meta data)&lt;/div&gt;" style="rounded=0;whiteSpace=wrap;html=1;" vertex="1" parent="cy5onEMHaT8GomFFvrG8-64">
          <mxGeometry x="340" y="160" width="120" height="60" as="geometry" />
        </mxCell>
        <mxCell id="cy5onEMHaT8GomFFvrG8-50" value="" style="endArrow=classic;html=1;rounded=0;exitX=0.5;exitY=1;exitDx=0;exitDy=0;exitPerimeter=0;edgeStyle=orthogonalEdgeStyle;" edge="1" parent="cy5onEMHaT8GomFFvrG8-64" source="cy5onEMHaT8GomFFvrG8-4" target="cy5onEMHaT8GomFFvrG8-3">
          <mxGeometry width="50" height="50" relative="1" as="geometry">
            <mxPoint x="450" y="540" as="sourcePoint" />
            <mxPoint x="500" y="490" as="targetPoint" />
            <Array as="points">
              <mxPoint x="240" y="140" />
              <mxPoint x="400" y="140" />
            </Array>
          </mxGeometry>
        </mxCell>
        <mxCell id="cy5onEMHaT8GomFFvrG8-15" value="" style="endArrow=classic;html=1;rounded=0;entryX=0.5;entryY=0;entryDx=0;entryDy=0;exitX=0.5;exitY=1;exitDx=0;exitDy=0;entryPerimeter=0;edgeStyle=orthogonalEdgeStyle;" edge="1" parent="cy5onEMHaT8GomFFvrG8-64" source="cy5onEMHaT8GomFFvrG8-2" target="cy5onEMHaT8GomFFvrG8-18">
          <mxGeometry width="50" height="50" relative="1" as="geometry">
            <mxPoint x="290" y="560" as="sourcePoint" />
            <mxPoint x="145" y="340" as="targetPoint" />
            <Array as="points">
              <mxPoint x="230" y="260" />
              <mxPoint x="160" y="260" />
            </Array>
          </mxGeometry>
        </mxCell>
        <mxCell id="cy5onEMHaT8GomFFvrG8-14" value="" style="endArrow=classic;html=1;rounded=0;exitX=0.5;exitY=1;exitDx=0;exitDy=0;entryX=0.5;entryY=0;entryDx=0;entryDy=0;entryPerimeter=0;edgeStyle=orthogonalEdgeStyle;" edge="1" parent="cy5onEMHaT8GomFFvrG8-64" source="cy5onEMHaT8GomFFvrG8-1" target="cy5onEMHaT8GomFFvrG8-18">
          <mxGeometry width="50" height="50" relative="1" as="geometry">
            <mxPoint x="290" y="560" as="sourcePoint" />
            <mxPoint x="145" y="340" as="targetPoint" />
            <Array as="points">
              <mxPoint x="100" y="260" />
              <mxPoint x="160" y="260" />
            </Array>
          </mxGeometry>
        </mxCell>
      </root>
    </mxGraphModel>
  </diagram>
</mxfile>
